<?xml version="1.0" encoding="UTF-8"?>
<svg width="60px" height="60px" viewBox="0 0 60 60" version="1.1" xmlns="http://www.w3.org/2000/svg" xmlns:xlink="http://www.w3.org/1999/xlink">
    <!-- Generator: Sketch 51.3 (57544) - http://www.bohemiancoding.com/sketch -->
    <title>015 - Dodecahedron</title>
    <desc>Created with Sketch.</desc>
    <defs></defs>
    <g id="Page-1" stroke="none" stroke-width="1" fill="none" fill-rule="evenodd">
        <g id="015---Dodecahedron" transform="translate(1.000000, -1.000000)">
            <polygon id="Shape" stroke="#000000" stroke-width="2" stroke-linecap="round" stroke-linejoin="round" points="29 60 39 60 48 54 58 37 58 25 48 8 39 2 29 2 19 2 10 8 0 25 0 37 10 54 19 60"></polygon>
            <polyline id="Shape" stroke="#000000" stroke-width="2" stroke-linecap="round" stroke-linejoin="round" points="10 8.105 29 13 48 8.105"></polyline>
            <polyline id="Shape" stroke="#000000" stroke-width="2" stroke-linecap="round" stroke-linejoin="round" points="19 60 13 41 29 31 45 41 39 60"></polyline>
            <path d="M0,25 L13,41" id="Shape" stroke="#000000" stroke-width="2" stroke-linecap="round" stroke-linejoin="round"></path>
            <path d="M58,25 L45,41" id="Shape" stroke="#000000" stroke-width="2" stroke-linecap="round" stroke-linejoin="round"></path>
            <path d="M29,31 L29,13" id="Shape" stroke="#000000" stroke-width="2" stroke-linecap="round" stroke-linejoin="round"></path>
            <path d="M10,55 C9.4871705,55.0005861 9.05701962,54.6131373 9.00417952,54.103037 C8.95133941,53.5929366 9.29293926,53.125544 9.795,53.021 L11.752,52.609 C12.1031889,52.5313579 12.4690205,52.6482929 12.7100652,52.9152374 C12.95111,53.1821819 13.0302316,53.5580093 12.9172743,53.8994806 C12.8043171,54.2409519 12.5166838,54.4954583 12.164,54.566 L10.207,54.979 C10.1388694,54.9928621 10.0695264,54.9998969 10,55 Z M47.187,54.829 C47.117411,54.8291054 47.0480123,54.8217297 46.98,54.807 L45.022,54.4 C44.4865795,54.2816274 44.1463552,53.7541549 44.259321,53.2175676 C44.3722867,52.6809803 44.8963005,52.3354526 45.434,52.443 L47.391,52.855 C47.89214,52.9593352 48.2335766,53.4252647 48.182107,53.9345563 C48.1306374,54.4438479 47.7028821,54.832042 47.191,54.834 L47.187,54.829 Z M15.87,53.764 C15.3589977,53.7621732 14.9315812,53.3753773 14.8789027,52.8670943 C14.8262242,52.3588112 15.1652333,51.892583 15.665,51.786 L17.623,51.374 C18.1606995,51.2664526 18.6847133,51.6119803 18.797679,52.1485676 C18.9106448,52.6851549 18.5704205,53.2126274 18.035,53.331 L16.077,53.743 C16.0088694,53.7568621 15.9395264,53.7638969 15.87,53.764 Z M41.314,53.592 C41.2444763,53.5918442 41.1751385,53.5848099 41.107,53.571 L39.15,53.159 C38.6095894,53.0449532 38.2639532,52.5144106 38.378,51.974 C38.4920468,51.4335894 39.0225894,51.0879532 39.563,51.202 L41.52,51.614 C42.0199467,51.720629 42.3589833,52.1871474 42.3060314,52.6955887 C42.2530795,53.20403 41.8251895,53.5906764 41.314,53.592 Z M21.742,52.528 C21.2291705,52.5285861 20.7990196,52.1411373 20.7461795,51.631037 C20.6933394,51.1209366 21.0349393,50.653544 21.537,50.549 L23.494,50.137 C24.0316995,50.0294526 24.5557133,50.3749803 24.668679,50.9115676 C24.7816448,51.4481549 24.4414205,51.9756274 23.906,52.094 L21.949,52.506 C21.8809708,52.5206243 21.8115834,52.5279988 21.742,52.528 Z M35.442,52.356 C35.3724514,52.3563426 35.3030628,52.3493031 35.235,52.335 L33.278,51.923 C32.7425795,51.8046274 32.4023552,51.2771549 32.515321,50.7405676 C32.6282867,50.2039803 33.1523005,49.8584526 33.69,49.966 L35.647,50.378 C36.1467667,50.484583 36.4857758,50.9508112 36.4330973,51.4590943 C36.3804188,51.9673773 35.9530023,52.3541732 35.442,52.356 Z M27.612,51.292 C27.1001179,51.290042 26.6723626,50.9018479 26.620893,50.3925563 C26.5694234,49.8832647 26.91086,49.4173352 27.412,49.313 L28.798,49.021 C28.9339065,48.9930033 29.0740935,48.9930033 29.21,49.021 L29.781,49.142 C30.3164205,49.2603726 30.6566448,49.7878451 30.543679,50.3244324 C30.4307133,50.8610197 29.9066995,51.2065474 29.369,51.099 L29,51.022 L27.82,51.271 C27.7518615,51.2848099 27.6825237,51.2918442 27.613,51.292 L27.612,51.292 Z" id="Shape" fill="#000000" fill-rule="nonzero"></path>
            <path d="M58,38 C57.7098859,38.0001077 57.4340247,37.8742186 57.244,37.655 L55.935,36.144 C55.6950103,35.8748694 55.6184999,35.4973773 55.7347596,35.1560417 C55.8510194,34.8147062 56.142042,34.5623967 56.4964129,34.495707 C56.8507839,34.4290172 57.2136147,34.5582767 57.446,34.834 L58.756,36.345 C59.0124997,36.6409062 59.0726752,37.059301 58.9099644,37.4155 C58.7472535,37.7716991 58.3916025,38.0001454 58,38 Z M54.07,33.466 C53.7798859,33.4661077 53.5040247,33.3402186 53.314,33.121 L52.005,31.609 C51.7670275,31.3394418 51.6920966,30.9628739 51.8087526,30.6227504 C51.9254085,30.282627 52.2156887,30.0313196 52.5690105,29.9645642 C52.9223323,29.8978088 53.2842918,30.0258842 53.517,30.3 L54.826,31.811 C55.0824997,32.1069062 55.1426752,32.525301 54.9799644,32.8815 C54.8172535,33.2376991 54.4616025,33.4661454 54.07,33.466 Z M50.141,28.932 C49.8507263,28.9318564 49.574839,28.8055905 49.385,28.586 L48.075,27.075 C47.7200172,26.6568524 47.7681159,26.0307997 48.1828068,25.6717848 C48.5974977,25.31277 49.2239868,25.3548047 49.587,25.766 L50.9,27.277 C51.1563812,27.5727694 51.2166297,27.9909296 51.0541721,28.3470453 C50.8917145,28.703161 50.5364215,28.9317539 50.145,28.932 L50.141,28.932 Z M46.211,24.4 C45.9208859,24.4001077 45.6450247,24.2742186 45.455,24.055 L44.244,22.655 C44.1526436,22.5482102 44.0845306,22.4235634 44.044,22.289 L44,22.145 C43.8402041,21.6276784 44.1211608,21.0771412 44.6338318,20.903001 C45.1465028,20.7288607 45.7046505,20.9943772 45.893,21.502 L46.968,22.743 C47.2238491,23.0389455 47.2836314,23.4569063 47.1210038,23.8127079 C46.9583762,24.1685095 46.6032064,24.3968066 46.212,24.397 L46.211,24.4 Z M43.811,19.028 C43.3692318,19.0280307 42.9797875,18.7381833 42.853,18.315 L42.274,16.4 C42.1712861,16.0577396 42.2589684,15.6866807 42.5040177,15.4265977 C42.749067,15.1665146 43.1142545,15.0569203 43.4620177,15.1390977 C43.8097809,15.2212751 44.0872861,15.4827396 44.19,15.825 L44.765,17.741 C44.8560918,18.0438897 44.7985196,18.3720184 44.6097555,18.6258057 C44.4209913,18.879593 44.1232908,19.0291169 43.807,19.029 L43.811,19.028 Z M42.087,13.281 C41.6452318,13.2810307 41.2557875,12.9911833 41.129,12.568 L40.555,10.652 C40.4522861,10.3097396 40.5399684,9.93868069 40.7850177,9.67859766 C41.030067,9.41851464 41.3952545,9.30892026 41.7430177,9.39109766 C42.0907809,9.47327507 42.3682861,9.73473956 42.471,10.077 L43.046,11.993 C43.1371428,12.2960584 43.0794536,12.6243731 42.8904574,12.8782074 C42.7014612,13.1320417 42.4034668,13.2814335 42.087,13.281 Z M40.359,7.531 C39.9172318,7.53103067 39.5277875,7.24118331 39.401,6.818 L38.827,4.9 C38.7244648,4.55773956 38.8123121,4.18677599 39.0574507,3.92684766 C39.3025893,3.66691934 39.6677769,3.55751555 40.0154507,3.63984766 C40.3631246,3.72217977 40.6404648,3.98373956 40.743,4.326 L41.317,6.242 C41.3931356,6.49607751 41.3652117,6.76999417 41.2393722,7.00348172 C41.1135327,7.23696927 40.9000876,7.41089821 40.646,7.487 C40.5529302,7.51531787 40.4562787,7.53013552 40.359,7.531 Z" id="Shape" fill="#000000" fill-rule="nonzero"></path>
            <path d="M1.788,35.937 C1.39639746,35.9371454 1.04074648,35.7086991 0.878035626,35.3525 C0.71532477,34.996301 0.77550029,34.5779062 1.032,34.282 L2.342,32.771 C2.70374651,32.3534727 3.33547273,32.3082535 3.753,32.67 C4.17052727,33.0317465 4.21574651,33.6634727 3.854,34.081 L2.544,35.592 C2.35397525,35.8112186 2.07811413,35.9371077 1.788,35.937 Z M5.717,31.4 C5.32557849,31.3997539 4.97028547,31.171161 4.80782787,30.8150453 C4.64537026,30.4589296 4.70561879,30.0407694 4.962,29.745 L6.271,28.234 C6.63401321,27.8228047 7.26050231,27.78077 7.67519322,28.1397848 C8.08988413,28.4987997 8.13798276,29.1248524 7.783,29.543 L6.474,31.058 C6.28319046,31.2763678 6.00698529,31.4011527 5.717,31.4 Z M9.646,26.866 C9.25475951,26.8653632 8.89982395,26.6366238 8.73761937,26.2805912 C8.5754148,25.9245586 8.63573662,25.5066326 8.892,25.211 L10.2,23.7 C10.4289845,23.4134204 10.7964958,23.2752164 11.1575743,23.3399006 C11.5186529,23.4045848 11.815333,23.661773 11.9305935,24.0100212 C12.045854,24.3582693 11.9611915,24.7416714 11.71,25.009 L10.4,26.523 C10.2111088,26.7427158 9.93574977,26.8690742 9.646,26.869 L9.646,26.866 Z M13.253,22.154 C13.155787,22.1542102 13.0590763,22.1400574 12.966,22.112 C12.4404296,21.9513452 12.1429965,21.3966727 12.3,20.87 L12.875,18.954 C13.0335057,18.4249112 13.5909112,18.1244943 14.12,18.283 C14.6490888,18.4415057 14.9495057,18.9989112 14.791,19.528 L14.216,21.444 C14.0886861,21.868961 13.6966165,22.1592472 13.253,22.157 L13.253,22.154 Z M14.978,16.407 C14.8801668,16.4067159 14.782867,16.3925755 14.689,16.365 C14.434868,16.2886993 14.2214788,16.1145267 14.0958158,15.880831 C13.9701527,15.6471353 13.9425194,15.3730779 14.019,15.119 L14.594,13.204 C14.6967139,12.8617396 14.9742191,12.6002751 15.3219823,12.5180977 C15.6697455,12.4359203 16.034933,12.5455146 16.2799823,12.8055977 C16.5250316,13.0656807 16.6127139,13.4367396 16.51,13.779 L15.935,15.7 C15.8072335,16.121641 15.418574,16.4099883 14.978,16.41 L14.978,16.407 Z M16.7,10.663 C16.6024899,10.6627838 16.5055106,10.648641 16.412,10.621 C16.1576837,10.5449094 15.9440569,10.3708239 15.8181934,10.1371041 C15.6923299,9.9033844 15.6645589,9.62921112 15.741,9.375 L16.316,7.459 C16.475058,6.92991122 17.0329112,6.62994201 17.562,6.78900002 C18.0910888,6.94805803 18.391058,7.50591121 18.232,8.035 L17.659,9.95 C17.5321065,10.3735379 17.1421381,10.6634728 16.7,10.663 Z M18.424,4.916 C18.326495,4.91571579 18.2295252,4.90157437 18.136,4.874 C17.8816837,4.79790941 17.6680569,4.62382386 17.5421934,4.39010413 C17.4163299,4.1563844 17.3885589,3.88221112 17.465,3.628 L18.042,1.712 C18.201058,1.18291121 18.7589112,0.882941992 19.288,1.042 C19.8170888,1.20105801 20.117058,1.75891121 19.958,2.288 L19.383,4.2 C19.2574085,4.62401743 18.8682255,4.91519304 18.426,4.916 L18.424,4.916 Z" id="Shape" fill="#000000" fill-rule="nonzero"></path>
            <path d="M29,51 C28.4477153,51 28,50.5522847 28,50 L28,48.643 C28,48.0907153 28.4477153,47.643 29,47.643 C29.5522847,47.643 30,48.0907153 30,48.643 L30,50 C30,50.5522847 29.5522847,51 29,51 Z M29,45.643 C28.4477153,45.643 28,45.1952847 28,44.643 L28,42.643 C28,42.0907153 28.4477153,41.643 29,41.643 C29.5522847,41.643 30,42.0907153 30,42.643 L30,44.643 C30,45.1952847 29.5522847,45.643 29,45.643 Z M29,39.643 C28.4477153,39.643 28,39.1952847 28,38.643 L28,36.643 C28,36.0907153 28.4477153,35.643 29,35.643 C29.5522847,35.643 30,36.0907153 30,36.643 L30,38.643 C30,39.1952847 29.5522847,39.643 29,39.643 Z M29,33.643 C28.4477153,33.643 28,33.1952847 28,32.643 L28,31 C27.9998997,30.6385201 28.1948899,30.3051251 28.51,30.128 L28.821,29.953 C29.2609256,29.7048255 29.8168517,29.8236734 30.1168491,30.2300312 C30.4168466,30.636389 30.3667177,31.2026626 30,31.55 L30,32.643 C30,33.1952847 29.5522847,33.643 29,33.643 Z M32.8,29.864 C32.3448703,29.8646809 31.9466909,29.557945 31.8312222,29.1177059 C31.7157535,28.6774668 31.912126,28.214788 32.309,27.992 L34.052,27.012 C34.3639551,26.8284268 34.7507586,26.8277582 35.0633464,27.010252 C35.3759342,27.1927457 35.565505,27.5299109 35.559003,27.8918126 C35.552501,28.2537143 35.3509413,28.5838524 35.032,28.755 L33.289,29.735 C33.1399871,29.8197818 32.9714431,29.8642443 32.8,29.864 Z M38.029,26.922 C37.5738703,26.9226809 37.1756909,26.615945 37.0602222,26.1757059 C36.9447535,25.7354668 37.141126,25.272788 37.538,25.05 L39.281,24.07 C39.7623162,23.7991044 40.3721043,23.9696839 40.643,24.451 C40.9138956,24.9323162 40.7433161,25.5421043 40.262,25.813 L38.519,26.793 C38.3693278,26.8779458 38.2000971,26.9224076 38.028,26.922 L38.029,26.922 Z M43.259,23.98 C42.8045806,23.9798714 42.4073805,23.6733681 42.2920345,23.2338317 C42.1766885,22.7942952 42.3722007,22.3322485 42.768,22.109 L44.511,21.128 C44.8225356,20.9529398 45.2037998,20.9573799 45.5111742,21.1396475 C45.8185485,21.3219152 46.0053355,21.6543197 46.0011742,22.0116475 C45.9970129,22.3689754 45.8025356,22.6969399 45.491,22.872 L43.748,23.852 C43.5983555,23.9360045 43.4296107,23.9800848 43.258,23.98 L43.259,23.98 Z" id="Shape" fill="#000000" fill-rule="nonzero"></path>
            <path d="M29,32 C28.8287282,31.9999133 28.660349,31.9558386 28.511,31.872 L28.2,31.7 C27.888643,31.5247612 27.6944261,31.196727 27.6905089,30.8394645 C27.6865916,30.4822021 27.8735692,30.1499882 28.1810089,29.9679645 C28.4884486,29.7859409 28.869643,29.7817612 29.181,29.957 L29.492,30.132 C29.8847756,30.3566877 30.0777255,30.8171295 29.9624747,31.2547075 C29.847224,31.6922855 29.4524964,31.9979429 29,32 Z M25.2,29.864 C25.0285569,29.8642443 24.8600129,29.8197818 24.711,29.735 L22.968,28.755 C22.6490587,28.5838524 22.447499,28.2537143 22.440997,27.8918126 C22.434495,27.5299109 22.6240658,27.1927457 22.9366536,27.010252 C23.2492414,26.8277582 23.6360449,26.8284268 23.948,27.012 L25.691,27.992 C26.087874,28.214788 26.2842465,28.6774668 26.1687778,29.1177059 C26.0533091,29.557945 25.6551297,29.8646809 25.2,29.864 Z M19.971,26.922 C19.7992418,26.9222339 19.6303776,26.8777778 19.481,26.793 L17.738,25.813 C17.426643,25.6377612 17.2324261,25.309727 17.2285088,24.9524645 C17.2245916,24.5952021 17.4115691,24.2629882 17.7190088,24.0809645 C18.0264486,23.8989409 18.407643,23.8947612 18.719,24.07 L20.462,25.05 C20.858874,25.272788 21.0552465,25.7354668 20.9397778,26.1757059 C20.8243091,26.615945 20.4261297,26.9226809 19.971,26.922 Z M14.741,23.98 C14.5697282,23.9799133 14.401349,23.9358386 14.252,23.852 L12.509,22.872 C12.0274077,22.6013805 11.8563805,21.9915923 12.127,21.51 C12.3976195,21.0284077 13.0074077,20.8573805 13.489,21.128 L15.232,22.109 C15.6277993,22.3322485 15.8233115,22.7942952 15.7079655,23.2338317 C15.5926195,23.6733681 15.1954194,23.9798714 14.741,23.98 Z" id="Shape" fill="#000000" fill-rule="nonzero"></path>
        </g>
    </g>
</svg>